<?xml version="1.0" encoding="UTF-8"?>
<svg id="_레이어_1" data-name="레이어_1" xmlns="http://www.w3.org/2000/svg" version="1.1" viewBox="0 0 24 24">
  <!-- Generator: Adobe Illustrator 29.4.0, SVG Export Plug-In . SVG Version: 2.1.0 Build 152)  -->
  <defs>
    <style>
      .st0 {
        fill: #33363d;
        fill-rule: evenodd;
      }
    </style>
  </defs>
  <path class="st0" d="M2.09,10.95C2.09,6.07,6.07,2.09,10.95,2.09s8.86,3.98,8.86,8.86c0,2.29-.9,4.48-2.39,6.07-.1,0-.2.1-.3.2-.1.1-.1.2-.2.3-1.59,1.49-3.68,2.39-6.07,2.39-4.88-.1-8.76-4.08-8.76-8.96ZM17.93,19.32c-1.89,1.59-4.28,2.49-6.97,2.49C4.88,21.81,0,16.93,0,10.95S4.88,0,10.95,0s10.95,4.88,10.95,10.95c0,2.69-.9,5.08-2.49,6.97l4.28,4.28c.4.4.4,1.1,0,1.49s-1.1.4-1.49,0l-4.28-4.38Z"/>
</svg>