<?xml version="1.0" encoding="UTF-8"?>
<svg id="_레이어_1" data-name="레이어_1" xmlns="http://www.w3.org/2000/svg" version="1.1" viewBox="0 0 15 15">
  <!-- Generator: Adobe Illustrator 29.4.0, SVG Export Plug-In . SVG Version: 2.1.0 Build 152)  -->
  <defs>
    <style>
      .st0 {
        fill: #2d2d2d;
        fill-rule: evenodd;
      }
    </style>
  </defs>
  <path class="st0" d="M1.29,2.3c0-.5.4-1,.99-1h5.17V0H2.28C.99,0,0,1,0,2.3v10.5c0,1.2.99,2.2,2.28,2.2h10.43c1.19,0,2.28-1,2.28-2.3v-5.2h-1.29v5.2c0,.5-.4,1-.99,1H2.28c-.5,0-.99-.4-.99-1V2.3ZM9.24.6c0,.4.3.6.6.6h2.88l-6.56,6.7c-.2.2-.2.6,0,.9.3.2.7.2.89,0l6.56-6.6v2.9c0,.4.3.6.6.6.4,0,.6-.3.6-.6V0h-4.97c-.3,0-.6.3-.6.6Z"/>
</svg>