<?xml version="1.0" encoding="UTF-8"?>
<svg id="_레이어_1" xmlns="http://www.w3.org/2000/svg" version="1.1" viewBox="0 0 160 50">
  <!-- Generator: Adobe Illustrator 29.4.0, SVG Export Plug-In . SVG Version: 2.1.0 Build 152)  -->
  <defs>
    <style>
      .st0 {
        fill: #ed1a3b;
      }

      .st1 {
        fill: #575756;
      }

      .st2 {
        fill: #003964;
      }
    </style>
  </defs>
  <g>
    <path class="st2" d="M38.65,23.87c-4.35-2.95-9.92-1.75-12.84,2.69-2.44,3.71-6.12,4.17-7.54,4.17-4.66,0-7.84-3.27-8.78-6.65,0,0-.02-.07-.02-.1s-.02-.07-.02-.11c-.37-1.41-.46-2.08-.46-3.58C8.98,12.2,17.29,3.19,29.24,3.19s19.26,9.32,21.07,14.5c-.03-.1-.07-.18-.09-.27C46.73,7.28,37.12,0,25.79,0,11.56,0,0,11.54,0,25.77c0,12.72,9.18,23.6,21.93,23.6,10.16,0,16.99-5.68,20.12-13.53,1.73-4.29.5-9.33-3.39-11.98h0Z"/>
    <path class="st0" d="M50.46,18.18c-1.51-5.06-8.57-14.99-21.23-14.99-11.95,0-20.26,9.01-20.26,17.09,0,1.5.09,2.18.46,3.58-.16-.62-.24-1.24-.24-1.83,0-8.43,8.43-14.25,17.12-14.25,11.75,0,21.28,9.51,21.28,21.25,0,9.19-5.3,17.16-12.99,20.98,9.92-3.58,17-13.08,17-24.23,0-2.63-.35-4.97-1.13-7.58"/>
  </g>
  <g>
    <path class="st1" d="M80.05,25.35h-16.44v-15.09h3.8v4.16h8.85v-4.16h3.8v15.09h-.01ZM76.25,17.68h-8.85v4.43h8.85v-4.43ZM87.63,34.5c0,1.08-.21,2.07-.64,2.97s-1,1.71-1.73,2.4c-.72.71-1.57,1.26-2.55,1.67-.97.41-2.01.62-3.1.62s-2.15-.21-3.1-.62c-.96-.41-1.8-.97-2.55-1.67-.72-.71-1.3-1.5-1.73-2.4s-.64-1.89-.64-2.97.21-2.04.64-2.95,1-1.72,1.73-2.43c.74-.71,1.59-1.26,2.55-1.67.95-.41,1.98-.62,3.1-.62s2.12.21,3.1.62,1.83.97,2.55,1.67c.72.71,1.3,1.52,1.73,2.43.43.91.64,1.9.64,2.95ZM83.84,34.46c0-1.17-.42-2.18-1.24-3.01-.82-.83-1.82-1.25-2.98-1.25s-2.19.42-3,1.25-1.22,1.83-1.22,3.01.41,2.21,1.22,3.03,1.82,1.23,3,1.23,2.15-.41,2.98-1.23c.82-.82,1.24-1.83,1.24-3.03ZM86.28,9.76h3.87v16.51h-3.87v-3.8h-4.53v-3.2h4.53v-2.96h-4.53v-3.2h4.53v-3.35h0Z"/>
    <path class="st1" d="M97.78,33.06v-3.45h28.56v3.45h-12.37v8.09h-3.87v-8.09h-12.34.01ZM100.08,10.67h23.96v14h-23.96v-14ZM120.22,14.09h-16.34v7.18h16.34s0-7.18,0-7.18Z"/>
    <path class="st1" d="M132.56,15.64v-3.27h7.28v-3h4.12v3h6.93v3.27h-7.55l7.84,8.02-2.5,2.39-6.75-7.11-6.69,7.67-2.58-2.43,7.87-8.56h-7.96ZM157.35,34.46c0,1.06-.21,2.05-.64,2.97-.43.92-1,1.74-1.73,2.45-.72.71-1.57,1.26-2.56,1.67s-2.04.62-3.16.62-2.13-.21-3.13-.62c-.99-.41-1.86-.97-2.58-1.67-.72-.71-1.3-1.52-1.73-2.45-.43-.92-.64-1.91-.64-2.97s.21-2.05.64-2.97c.43-.93,1-1.74,1.73-2.45.72-.71,1.58-1.26,2.58-1.67,1-.41,2.04-.62,3.13-.62s2.16.21,3.16.62c.98.41,1.84.97,2.56,1.67.72.71,1.3,1.52,1.73,2.45.43.92.64,1.91.64,2.97ZM153.56,34.43c0-1.17-.43-2.19-1.27-3.03s-1.86-1.26-3.04-1.26-2.15.42-3,1.26c-.83.84-1.25,1.86-1.25,3.03s.42,2.21,1.25,3.04,1.84,1.24,3,1.24,2.2-.42,3.04-1.24c.85-.83,1.27-1.85,1.27-3.04ZM156.13,26.48v-5.98h-5.43v-3.34h5.43v-7.39h3.87v16.71h-3.87Z"/>
  </g>
</svg>