<?xml version="1.0" encoding="utf-8"?>
<!-- Generator: Adobe Illustrator 25.4.1, SVG Export Plug-In . SVG Version: 6.00 Build 0)  -->
<svg version="1.1" id="레이어_1" xmlns="http://www.w3.org/2000/svg" xmlns:xlink="http://www.w3.org/1999/xlink" x="0px"
	 y="0px" viewBox="0 0 30 20" style="enable-background:new 0 0 30 20;" xml:space="preserve">
<style type="text/css">
	.st0{clip-path:url(#SVGID_00000002366480261323189270000016731200640147893690_);}
	.st1{fill:#FFFFFF;}
	.st2{fill:#D0303C;}
	.st3{fill:#134A9D;}
</style>
<g>
	<defs>
		<rect id="SVGID_1_" width="30" height="20"/>
	</defs>
	<clipPath id="SVGID_00000075846612022336564040000006389441671903869882_">
		<use xlink:href="#SVGID_1_"  style="overflow:visible;"/>
	</clipPath>
	<g style="clip-path:url(#SVGID_00000075846612022336564040000006389441671903869882_);">
		<path class="st1" d="M0,0h30v20H0V0z"/>
		<path class="st2" d="M10.8,7.2c0.7-1.1,1.9-1.9,3.2-2.1c1.3-0.3,2.7,0,3.8,0.7c1.1,0.7,1.9,1.9,2.1,3.2c0.3,1.3,0,2.7-0.7,3.8
			L10.8,7.2z"/>
		<path class="st3" d="M10.8,7.2c-0.7,1.1-1,2.5-0.7,3.8c0.3,1.3,1,2.4,2.1,3.2c1.1,0.7,2.5,1,3.8,0.7c1.3-0.3,2.4-1,3.2-2.1
			c0.4-0.6,0.5-1.2,0.4-1.9c-0.1-0.7-0.5-1.2-1.1-1.6c-0.6-0.4-1.2-0.5-1.9-0.4S15.4,9.4,15,10L10.8,7.2z"/>
		<path class="st2" d="M15,10c0.8-1.1,0.5-2.7-0.7-3.5c-1.1-0.8-2.7-0.5-3.5,0.7c-0.8,1.1-0.5,2.7,0.7,3.5
			C12.7,11.5,14.2,11.1,15,10z"/>
		<path d="M4.6,6.1l2.8-4.2l0.7,0.5L5.3,6.5L4.6,6.1z M5.6,6.8l2.8-4.2l0.7,0.5L6.3,7.2L5.6,6.8z M6.7,7.5l2.8-4.2l0.7,0.5L7.4,7.9
			L6.7,7.5z"/>
		<path d="M24.1,15.8l1.3-1.9l-0.7-0.5l-1.3,1.9L24.1,15.8z"/>
		<path d="M23.1,15.1l1.3-1.9l-0.7-0.5l-1.3,1.9L23.1,15.1z"/>
		<path d="M22.2,15l0.7,0.5l-1.3,1.9l-0.7-0.5L22.2,15z"/>
		<path d="M22,14.4l1.3-1.9l-0.7-0.5L21.4,14L22,14.4z"/>
		<path d="M21.1,14.3l0.7,0.5l-1.3,1.9l-0.7-0.5L21.1,14.3z"/>
		<path d="M23.2,15.7l0.7,0.5l-1.3,1.9l-0.7-0.5L23.2,15.7z"/>
		<path d="M21.8,5.2l-1.3-1.9l-0.7,0.5l1.3,1.9L21.8,5.2z"/>
		<path d="M21.4,6l1.3,1.9l0.7-0.5L22,5.6L21.4,6z"/>
		<path d="M23.7,7.2l-2.8-4.2l0.7-0.5l2.8,4.2L23.7,7.2z"/>
		<path d="M24.7,6.5l-1.3-1.9l0.7-0.5l1.3,1.9L24.7,6.5z"/>
		<path d="M23.9,3.8l-0.7,0.5l-1.3-1.9l0.7-0.5L23.9,3.8z"/>
		<path d="M4.6,13.9l2.8,4.2l0.7-0.5l-2.8-4.2L4.6,13.9z"/>
		<path d="M7.1,15.5l1.3,1.9l0.7-0.5L7.8,15L7.1,15.5z"/>
		<path d="M6.9,15.1l0.7-0.5l-1.3-1.9l-0.7,0.5L6.9,15.1z"/>
		<path d="M6.7,12.5l2.8,4.2l0.7-0.5l-2.8-4.2L6.7,12.5z"/>
	</g>
</g>
</svg>
