<?xml version="1.0" encoding="utf-8"?>
<!-- Generator: Adobe Illustrator 25.4.1, SVG Export Plug-In . SVG Version: 6.00 Build 0)  -->
<svg version="1.1" id="Layer_1" xmlns="http://www.w3.org/2000/svg" xmlns:xlink="http://www.w3.org/1999/xlink" x="0px" y="0px"
	 viewBox="0 0 30 30" style="enable-background:new 0 0 30 30;" xml:space="preserve">
<style type="text/css">
	.st0{fill:#FFFFFF;}
</style>
<g>
	<circle class="st0" cx="15" cy="15" r="15"/>
	<path d="M7.5,9.1c0-0.9,0.7-1.6,1.6-1.6h3.2c0.9,0,1.6,0.7,1.6,1.6v3.2c0,0.9-0.7,1.6-1.6,1.6H9.1c-0.9,0-1.6-0.7-1.6-1.6L7.5,9.1
		C7.5,9.1,7.5,9.1,7.5,9.1z M16.1,9.1c0-0.9,0.7-1.6,1.6-1.6h3.2c0.9,0,1.6,0.7,1.6,1.6v3.2c0,0.9-0.7,1.6-1.6,1.6h-3.2
		c-0.9,0-1.6-0.7-1.6-1.6L16.1,9.1L16.1,9.1L16.1,9.1z M7.5,17.7c0-0.9,0.7-1.6,1.6-1.6h3.2c0.9,0,1.6,0.7,1.6,1.6v3.2
		c0,0.9-0.7,1.6-1.6,1.6H9.1c-0.9,0-1.6-0.7-1.6-1.6C7.5,20.9,7.5,17.7,7.5,17.7z M16.1,17.7c0-0.9,0.7-1.6,1.6-1.6h3.2
		c0.9,0,1.6,0.7,1.6,1.6v3.2c0,0.9-0.7,1.6-1.6,1.6h-3.2c-0.9,0-1.6-0.7-1.6-1.6L16.1,17.7L16.1,17.7L16.1,17.7z"/>
</g>
</svg>
