<?xml version="1.0" encoding="UTF-8"?>
<svg id="_레이어_1" data-name="레이어_1" xmlns="http://www.w3.org/2000/svg" version="1.1" viewBox="0 0 20 18">
  <!-- Generator: Adobe Illustrator 29.4.0, SVG Export Plug-In . SVG Version: 2.1.0 Build 152)  -->
  <defs>
    <style>
      .st0, .st1 {
        fill: #303336;
      }

      .st1 {
        fill-rule: evenodd;
      }
    </style>
  </defs>
  <path class="st0" d="M4.4,6.64c-.4,0-.7.3-.7.7s.3.7.7.7.7-.3.7-.7-.4-.7-.7-.7Z"/>
  <path class="st0" d="M11.2,6.64c-.4,0-.7.3-.7.7s.3.7.7.7.7-.3.7-.7-.3-.7-.7-.7Z"/>
  <path class="st0" d="M15,7.34c0-.4.3-.7.7-.7s.7.3.7.7-.3.7-.7.7-.7-.3-.7-.7Z"/>
  <path class="st1" d="M2.7,0h14.6c1.5,0,2.7,1.21,2.7,2.61v8.45c0,1.41-1.2,2.61-2.7,2.61h-5.1l-1.8,4.02s-.1.3-.4.3-.4-.3-.4-.3l-1.8-4.02H2.7c-1.5,0-2.7-1.11-2.7-2.61V2.61C0,1.21,1.2,0,2.7,0ZM4.6,9.05s1.6,0,1.7-1.61h0s.2-1.81-1.5-2.01c0,0-.8,0-1.1.5v-1.81h-1.2v4.83h1.2v-.3c-.1,0,.3.4.9.4ZM8.4,8.95v-3.32s.1-1.61-1.7-1.71v1.11s.6.1.6.6v3.22h1.1v.1ZM9.2,7.34c0,1.01.9,1.81,2,1.81s2-.8,2-1.81-.9-1.81-2-1.81-2,.8-2,1.81ZM15.9,10.76c1.7,0,1.7-1.71,1.7-1.71v-3.42h-1.2v.4c-.4-.5-1-.4-1-.4-1.6,0-1.7,1.41-1.7,1.41v.5c0,1.41,1.5,1.51,1.5,1.51,1,0,1.2-.4,1.2-.4,0,1.11-.7,1.01-.7,1.01h-.3v1.11s.5,0,.5,0Z"/>
</svg>