<?xml version="1.0" encoding="utf-8"?>
<!-- Generator: Adobe Illustrator 25.4.1, SVG Export Plug-In . SVG Version: 6.00 Build 0)  -->
<svg version="1.1" id="레이어_1" xmlns="http://www.w3.org/2000/svg" xmlns:xlink="http://www.w3.org/1999/xlink" x="0px"
	 y="0px" viewBox="0 0 20 20" style="enable-background:new 0 0 20 20;" xml:space="preserve">
<style type="text/css">
	.st0{fill:#303336;}
</style>
<polygon class="st0" points="11.2,22 11.2,22 11.2,22 "/>
<polygon class="st0" points="10,2 10,2 10,2 "/>
<polygon class="st0" points="0,12 0,12 0,12 "/>
<polygon class="st0" points="20,12 20,12 20,12 "/>
<path class="st0" d="M19.9,5.9c-0.1-1.1-0.2-1.8-0.5-2.4c-0.3-0.7-0.6-1.2-1.2-1.8c-0.6-0.6-1.1-0.9-1.8-1.1C15.8,0.4,15,0.2,14,0.1
	C13,0,12.7,0,10,0c0,0,0,0,0,0C7.3,0,6.9,0,5.9,0.1c-1.1,0-1.8,0.2-2.5,0.4C2.8,0.8,2.2,1.1,1.7,1.7C1.1,2.3,0.8,2.8,0.5,3.5
	C0.3,4.1,0.1,4.8,0.1,5.9C0,7,0,7.3,0,10c0,0,0,0,0,0c0,0,0,0,0,0c0,2.7,0,3.1,0.1,4.1c0.1,1.1,0.2,1.8,0.5,2.4
	c0.3,0.7,0.6,1.2,1.2,1.8c0.6,0.6,1.1,0.9,1.8,1.2C4.2,19.7,5,19.9,6,20c0.6,0,0.9,0,1.6,0v-6.9H5.5V10h2.1V8.7c0-3.4,1.5-5,4.9-5
	c0.6,0,1.7,0.1,2.2,0.2v2.8c-0.2,0-0.6,0-1.2,0c-1.6,0-2.3,0.6-2.3,2.2V10h3.3l-0.6,3.1h-2.7V20c0,0,0,0,0,0c1.6,0,2.1,0,2.9-0.1
	c1.1-0.1,1.8-0.2,2.4-0.5c0.7-0.3,1.2-0.6,1.8-1.2c0.6-0.6,0.9-1.1,1.1-1.8c0.2-0.6,0.4-1.4,0.5-2.4c0.1-1,0.1-1.3,0.1-4
	c0,0,0,0,0,0c0,0,0,0,0,0C20,7.3,20,6.9,19.9,5.9z"/>
</svg>
