<?xml version="1.0" encoding="utf-8"?>
<!-- Generator: Adobe Illustrator 25.4.1, SVG Export Plug-In . SVG Version: 6.00 Build 0)  -->
<svg version="1.1" id="레이어_1" xmlns="http://www.w3.org/2000/svg" xmlns:xlink="http://www.w3.org/1999/xlink" x="0px"
	 y="0px" viewBox="0 0 20 20" style="enable-background:new 0 0 20 20;" xml:space="preserve">
<style type="text/css">
	.st0{fill:#303336;}
</style>
<g>
	<path class="st0" d="M5.9,0.1C4.8,0.1,4.1,0.3,3.4,0.5C2.8,0.8,2.2,1.1,1.7,1.7C1.1,2.3,0.8,2.8,0.5,3.5C0.3,4.1,0.1,4.8,0.1,5.9
		C0,7,0,7.3,0,10c0,2.7,0,3.1,0.1,4.1c0.1,1.1,0.2,1.8,0.5,2.4c0.3,0.7,0.6,1.2,1.2,1.8c0.6,0.6,1.1,0.9,1.8,1.2
		c0.6,0.2,1.4,0.4,2.4,0.5C7,20,7.3,20,10,20c2.7,0,3.1,0,4.1-0.1c1.1-0.1,1.8-0.2,2.4-0.5c0.7-0.3,1.2-0.6,1.8-1.2
		c0.6-0.6,0.9-1.1,1.1-1.8c0.2-0.6,0.4-1.4,0.5-2.4C20,13,20,12.7,20,10c0-2.7,0-3.1-0.1-4.1c-0.1-1.1-0.2-1.8-0.5-2.4
		c-0.3-0.7-0.6-1.2-1.2-1.8c-0.6-0.6-1.1-0.9-1.8-1.1c-0.6-0.2-1.4-0.4-2.4-0.5C13,0,12.7,0,10,0C7.3,0,6.9,0,5.9,0.1z M6,18.1
		c-1,0-1.5-0.2-1.9-0.3c-0.5-0.2-0.8-0.4-1.2-0.7c-0.4-0.3-0.6-0.7-0.8-1.1c-0.1-0.4-0.3-0.9-0.3-1.9c0-1.1-0.1-1.4-0.1-4
		c0-2.7,0-3,0.1-4c0-1,0.2-1.5,0.3-1.9C2.4,3.7,2.6,3.3,2.9,3c0.3-0.4,0.7-0.6,1.1-0.8C4.4,2.1,5,1.9,5.9,1.9C7,1.8,7.3,1.8,10,1.8
		c2.7,0,3,0,4,0.1c1,0,1.5,0.2,1.9,0.3c0.5,0.2,0.8,0.4,1.2,0.7c0.4,0.3,0.6,0.7,0.8,1.1c0.1,0.4,0.3,0.9,0.3,1.9
		c0.1,1.1,0.1,1.4,0.1,4c0,2.7,0,3-0.1,4c0,1-0.2,1.5-0.3,1.9c-0.2,0.5-0.4,0.8-0.7,1.2c-0.3,0.4-0.7,0.6-1.1,0.8
		c-0.4,0.1-0.9,0.3-1.9,0.3c-1.1,0-1.4,0.1-4,0.1C7.3,18.2,7,18.2,6,18.1 M14.1,4.7c0,0.2,0.1,0.5,0.2,0.7c0.1,0.2,0.3,0.4,0.5,0.4
		c0.2,0.1,0.5,0.1,0.7,0.1c0.2,0,0.4-0.2,0.6-0.3c0.2-0.2,0.3-0.4,0.3-0.6c0-0.2,0-0.5-0.1-0.7C16.3,4,16.2,3.8,16,3.7
		c-0.2-0.1-0.4-0.2-0.7-0.2c-0.3,0-0.6,0.1-0.8,0.4C14.3,4,14.1,4.3,14.1,4.7z M4.9,10c0,2.8,2.3,5.1,5.1,5.1c2.8,0,5.1-2.3,5.1-5.1
		c0-2.8-2.3-5.1-5.1-5.1C7.2,4.9,4.9,7.2,4.9,10z M6.7,10c0-0.7,0.2-1.3,0.6-1.9c0.4-0.5,0.9-1,1.5-1.2c0.6-0.3,1.3-0.3,1.9-0.2
		c0.6,0.1,1.2,0.4,1.7,0.9c0.5,0.5,0.8,1.1,0.9,1.7c0.1,0.6,0.1,1.3-0.2,1.9c-0.3,0.6-0.7,1.1-1.2,1.5c-0.5,0.4-1.2,0.6-1.9,0.6
		c-0.4,0-0.9-0.1-1.3-0.3c-0.4-0.2-0.8-0.4-1.1-0.7c-0.3-0.3-0.6-0.7-0.7-1.1C6.8,10.9,6.7,10.4,6.7,10z"/>
</g>
</svg>
