<?xml version="1.0" encoding="UTF-8"?>
<svg id="_레이어_1" data-name="레이어_1" xmlns="http://www.w3.org/2000/svg" version="1.1" viewBox="0 0 20 15">
  <!-- Generator: Adobe Illustrator 29.4.0, SVG Export Plug-In . SVG Version: 2.1.0 Build 152)  -->
  <defs>
    <style>
      .st0 {
        fill: #303336;
        fill-rule: evenodd;
      }
    </style>
  </defs>
  <path class="st0" d="M17.8.4c.9.2,1.5,1,1.8,1.9.4,1.7.4,5.2.4,5.2,0,0,0,3.5-.4,5.2-.2.9-.9,1.6-1.8,1.9-1.6.4-7.8.4-7.8.4,0,0-6.3,0-7.8-.4-.9-.2-1.5-1-1.8-1.9-.4-1.7-.4-5.2-.4-5.2,0,0,0-3.5.4-5.2.2-.9.9-1.6,1.8-1.9,1.5-.4,7.8-.4,7.8-.4,0,0,6.3,0,7.8.4ZM13,7.5l-5,2.5v-5l5,2.5Z"/>
</svg>