<?xml version="1.0" encoding="UTF-8"?>
<svg id="Layer_1" xmlns="http://www.w3.org/2000/svg" version="1.1" viewBox="0 0 20 20">
  <!-- Generator: Adobe Illustrator 29.4.0, SVG Export Plug-In . SVG Version: 2.1.0 Build 152)  -->
  <defs>
    <style>
      .st0 {
        fill: #ccc;
        fill-rule: evenodd;
      }
    </style>
  </defs>
  <path class="st0" d="M2.26.67c.8-.9,2.2-.9,3.1,0q.1.1.2.2l2.2,2.9c.4.5.6,1.2.4,1.9l-.6,2.7c-.1.3,0,.6.2.8l3.1,3.1c.2.2.5.3.8.2l2.7-.7c.6-.2,1.3,0,1.9.4l2.9,2.2c1,.8,1.1,2.3.2,3.3l-1.3,1.3c-.9.9-2.3,1.3-3.61.9-3.3-1.2-6.31-3.1-8.81-5.49S1.26,8.96.16,5.67c-.4-1.3,0-2.7.9-3.59l1.2-1.4Z"/>
</svg>