<?xml version="1.0" encoding="utf-8"?>
<!-- Generator: Adobe Illustrator 25.4.1, SVG Export Plug-In . SVG Version: 6.00 Build 0)  -->
<svg version="1.1" id="Layer_1" xmlns="http://www.w3.org/2000/svg" xmlns:xlink="http://www.w3.org/1999/xlink" x="0px" y="0px"
	 viewBox="0 0 20 20" style="enable-background:new 0 0 20 20;" xml:space="preserve">
<style type="text/css">
	.st0{fill:#CCCCCC;}
	.st1{fill:#FFFFFF;}
</style>
<g>
	<circle class="st0" cx="10" cy="10" r="10"/>
	<path class="st1" d="M8.7,15v-3c0-0.2,0.2-0.4,0.4-0.4h1.7c0.2,0,0.4,0.2,0.4,0.4v3c0,0.2,0.2,0.4,0.4,0.4h3.4
		c0.2,0,0.4-0.2,0.4-0.4V9c0-0.1,0-0.2-0.1-0.3l-1.2-1.2V4.7c0-0.2-0.2-0.4-0.4-0.4H13c-0.2,0-0.4,0.2-0.4,0.4v1.1l-2.3-2.3
		c-0.2-0.2-0.4-0.2-0.6,0l0,0L4.6,8.7C4.5,8.8,4.4,8.9,4.4,9v6c0,0.2,0.2,0.4,0.4,0.4h3.4C8.5,15.4,8.7,15.2,8.7,15"/>
</g>
</svg>
